<svg width="22" height="20" viewBox="0 0 22 20" fill="none" xmlns="http://www.w3.org/2000/svg">
<path d="M7.96173 16.9111L8.42605 16.3221L7.96173 16.9111ZM11 3.50088L10.4596 4.02098C10.601 4.16787 10.7961 4.25088 11 4.25088C11.2039 4.25088 11.399 4.16787 11.5404 4.02098L11 3.50088ZM14.0383 16.9111L14.5026 17.5001L14.0383 16.9111ZM6.00061 14.4211C5.68078 14.1579 5.20813 14.2038 4.94491 14.5236C4.68169 14.8435 4.72758 15.3161 5.04741 15.5793L6.00061 14.4211ZM1.34199 11.4117C1.54074 11.7751 1.99647 11.9086 2.35988 11.7098C2.7233 11.5111 2.85677 11.0554 2.65801 10.6919L1.34199 11.4117ZM1.75 7.13734C1.75 4.98647 2.96537 3.18277 4.62436 2.42444C6.23607 1.68772 8.40166 1.88282 10.4596 4.02098L11.5404 2.98078C9.0985 0.443765 6.26409 0.0256307 4.00076 1.0602C1.78471 2.07317 0.25 4.42527 0.25 7.13734H1.75ZM7.49742 17.5001C8.00965 17.9039 8.55954 18.3345 9.11682 18.6602C9.67386 18.9857 10.3096 19.2502 11 19.2502V17.7502C10.6904 17.7502 10.3261 17.6295 9.87361 17.3651C9.42132 17.1008 8.95208 16.7368 8.42605 16.3221L7.49742 17.5001ZM14.5026 17.5001C15.9292 16.3755 17.7528 15.0868 19.1833 13.476C20.6395 11.8363 21.75 9.80287 21.75 7.13734H20.25C20.25 9.33474 19.3508 11.0285 18.0617 12.48C16.7469 13.9605 15.0896 15.1273 13.574 16.3221L14.5026 17.5001ZM21.75 7.13734C21.75 4.42527 20.2153 2.07317 17.9992 1.0602C15.7359 0.0256307 12.9015 0.443765 10.4596 2.98078L11.5404 4.02098C13.5983 1.88282 15.7639 1.68772 17.3756 2.42444C19.0346 3.18277 20.25 4.98647 20.25 7.13734H21.75ZM13.574 16.3221C13.0479 16.7368 12.5787 17.1008 12.1264 17.3651C11.6739 17.6295 11.3096 17.7502 11 17.7502V19.2502C11.6904 19.2502 12.3261 18.9857 12.8832 18.6602C13.4405 18.3345 13.9903 17.9039 14.5026 17.5001L13.574 16.3221ZM8.42605 16.3221C7.63014 15.6947 6.82129 15.0966 6.00061 14.4211L5.04741 15.5793C5.87768 16.2627 6.75472 16.9146 7.49742 17.5001L8.42605 16.3221ZM2.65801 10.6919C2.0968 9.66583 1.75 8.50352 1.75 7.13734H0.25C0.25 8.77489 0.669949 10.183 1.34199 11.4117L2.65801 10.6919Z" fill="#1CD4E1"/>
</svg>
